<svg width="133" height="133" viewBox="0 0 133 133" fill="none" xmlns="http://www.w3.org/2000/svg">
<g clip-path="url(#clip0)">
<path d="M66.5 133C103.227 133 133 103.227 133 66.5C133 29.7731 103.227 0 66.5 0C29.7731 0 0 29.7731 0 66.5C0 103.227 29.7731 133 66.5 133Z" fill="#FCA311"/>
<path d="M133.008 66.5078C133.008 103.249 103.228 133.008 66.5078 133.008C45.6019 133.008 26.9403 123.365 14.7417 108.257C26.1506 117.484 40.6767 122.991 56.4912 122.991C93.2117 122.991 122.991 93.2325 122.991 56.4912C122.991 40.6767 117.484 26.1506 108.257 14.7417C123.345 26.9403 133.008 45.6019 133.008 66.5078Z" fill="#F08E1A"/>
<path d="M44.3817 105.007C42.474 103.731 41.9628 101.15 43.2387 99.2421C52.8642 84.8622 67.718 84.8622 88.2782 84.8622C90.5723 84.8622 92.4342 86.7241 92.4342 89.0182C92.4342 91.3124 90.5723 93.1743 88.2782 93.1743C67.3606 93.1743 56.9995 93.6273 50.1461 103.868C48.8619 105.78 46.281 106.274 44.3817 105.007Z" fill="white"/>
<path d="M42.3888 66.18C48.2789 66.18 53.0537 61.4052 53.0537 55.5151C53.0537 49.625 48.2789 44.8502 42.3888 44.8502C36.4987 44.8502 31.7239 49.625 31.7239 55.5151C31.7239 61.4052 36.4987 66.18 42.3888 66.18Z" fill="white"/>
<path d="M48.4462 53.6605C47.7062 54.3588 46.3095 54.1052 45.4157 53.1118C44.4929 52.1226 44.3349 50.7177 45.1123 50.0402C45.8813 49.3336 47.2448 49.5663 48.1677 50.5597C49.0947 51.5781 49.2152 52.958 48.4462 53.6605Z" fill="#5A5F63"/>
<path d="M90.6078 66.18C96.4979 66.18 101.273 61.4052 101.273 55.5151C101.273 49.625 96.4979 44.8502 90.6078 44.8502C84.7177 44.8502 79.9429 49.625 79.9429 55.5151C79.9429 61.4052 84.7177 66.18 90.6078 66.18Z" fill="white"/>
<path d="M96.6641 53.6605C95.9243 54.3588 94.528 54.1052 93.6345 53.1118C92.7119 52.1226 92.554 50.7177 93.3311 50.0402C94.0999 49.3336 95.463 49.5663 96.3856 50.5597C97.3124 51.5781 97.4329 52.958 96.6641 53.6605Z" fill="#5A5F63"/>
</g>
<defs>
<clipPath id="clip0">
<rect width="133" height="133" fill="white"/>
</clipPath>
</defs>
</svg>
