<svg width="133" height="133" viewBox="0 0 133 133" fill="none" xmlns="http://www.w3.org/2000/svg">
<g clip-path="url(#clip0)">
<rect width="133" height="133" fill="white"/>
<path d="M66.5 133C103.227 133 133 103.227 133 66.5C133 29.7731 103.227 0 66.5 0C29.7731 0 0 29.7731 0 66.5C0 103.227 29.7731 133 66.5 133Z" fill="#FCA311"/>
<path d="M133 66.5C133 103.241 103.22 133 66.5 133C45.594 133 26.9325 123.357 14.7339 108.25C26.1428 117.476 40.6689 122.983 56.4834 122.983C93.2039 122.983 122.983 93.2247 122.983 56.4834C122.983 40.6689 117.476 26.1428 108.25 14.7339C123.337 26.9325 133 45.594 133 66.5Z" fill="#F08E1A"/>
<path d="M96.259 89.4634C96.259 91.4625 94.6422 93.0793 92.643 93.0793H40.3532C38.3749 93.0793 36.7373 91.4625 36.7373 89.4634C36.7373 87.4642 38.3749 85.8474 40.3532 85.8474H92.643C94.6463 85.8516 96.259 87.4642 96.259 89.4634Z" fill="white"/>
<path d="M45.3323 63.7029C50.8046 63.7029 55.2408 59.2667 55.2408 53.7944C55.2408 48.3221 50.8046 43.8859 45.3323 43.8859C39.86 43.8859 35.4238 48.3221 35.4238 53.7944C35.4238 59.2667 39.86 63.7029 45.3323 63.7029Z" fill="white"/>
<path d="M50.8799 48.7416C50.022 47.5887 48.722 47.1041 47.9761 47.6591C47.2303 48.2141 47.321 49.5986 48.1789 50.7514C49.0367 51.9043 50.3368 52.3889 51.0827 51.8339C51.8285 51.2789 51.7377 49.8945 50.8799 48.7416Z" fill="#5A5F63"/>
<path d="M87.6553 63.7029C93.1276 63.7029 97.5638 59.2667 97.5638 53.7944C97.5638 48.3221 93.1276 43.8859 87.6553 43.8859C82.183 43.8859 77.7468 48.3221 77.7468 53.7944C77.7468 59.2667 82.183 63.7029 87.6553 63.7029Z" fill="white"/>
<path d="M93.2001 48.7522C92.3423 47.5995 91.0423 47.115 90.2965 47.67C89.5507 48.225 89.6416 49.6094 90.4995 50.7621C91.3573 51.9148 92.6573 52.3993 93.4031 51.8443C94.1488 51.2893 94.058 49.9049 93.2001 48.7522Z" fill="#5A5F63"/>
</g>
<defs>
<clipPath id="clip0">
<rect width="133" height="133" fill="white"/>
</clipPath>
</defs>
</svg>
